/* XPM */
static char *result[] = {
/* columns rows colors chars-per-pixel */
"62 64 7 1 ",
"  c black",
". c #D11E11",
"X c #3034AB",
"o c #ADFFFA",
"O c #DBFFFA",
"+ c white",
"@ c None",
/* pixels */
"@@@@@@@@@@@@@@@@@@@@@@@@@@@@@@@@@@@@@@@@@@@@@@@@@@@@@@@@@@@@@@",
"@@@@@@@@@@@@@@@@@@@@@@@@@@@@@@@@@@@@@@@@@@@@@@@@@@@@@@@@@@@@@@",
"@@@@@@@@@@@@@@@@@@@@@@@@@@@@@@@@@@@@@@@@@@@@@@@@@@@@@@@@@@@@@@",
"@@@@@@@@@@@@@@@@@@@@@@@@@@@@@@@@@@@@@@@@@@@@@@@@@@@@@@@@@@@@@@",
"@@@@@@@@@@@@@@@@@@@@@@@@@@@@@@@@@@@@@@@@@@@@@@@@@@@@@@@@@@@@@@",
"@@@@@@@@@@@@@@@@@@@@@@@@@@@@@@@@@@@@@@@@@@@@@@@@@@@@@@@@@@@@@@",
"@@@@@@@@@@@@@@@@@@@@@@@@@@@@@@@@@@@@@@@@@@@@@@@@@@@@@@@@@@@@@@",
"@@@@@@@@@@@@@@@@@@@@@@@@@@@@@@@@@@@@@@@@@@@@@@@@@@@@@@@@@@@@@@",
"@@@@@@@@@@@@@@@@@@@@@@@@@@@@@@@@@@@@@@@@@@@@@@@@@@@@@@@@@@@@@@",
"@@@@@@@@@@@@@@@@@@@@@@@@@@@@@@@@@@@@@@@@@@@@@@@@@@@@@@@@@@@@@@",
"@@@@@@@@@@@@@@@@@@@@@@@@@@@@@@@@@@@@@@@@@@@@@@@@@@@@@@@@@@@@@@",
"@@@@@@@@@@@@@@@@@@@@@@@@@@@@@@@@@@@@@@@@@@@@@@@@@@@@@@@@@@@@@@",
"@@@@@@@@@@@@@@@@@@@@@@                @@@@@@@@@@@@@@@@@@@@@@@@",
"@@@@@@@@@@@@@@@@@@@@@@                @@@@@@@@@@@@@@@@@@@@@@@@",
"@@@@@@@@@@@@@@@@@@    ....  ++++  ....    @@@@@@@@@@@@@@@@@@@@",
"@@@@@@@@@@@@@@@@@@    ....  ++++  ....    @@@@@@@@@@@@@@@@@@@@",
"@@@@@@@@@@@@@@@@@@  ......  ++++  ......  @@@@@@@@@@@@@@@@@@@@",
"@@@@@@@@@@@@@@@@@@  ......  ++++  ......  @@@@@@@@@@@@@@@@@@@@",
"@@@@@@@@@@@@@@@@                            @@@@@@@@@@@@@@@@@@",
"@@@@@@@@@@@@@@@@                            @@@@@@@@@@@@@@@@@@",
"@@@@@@@@@@@@@@  ++++++++++++++++++++++++++++  @@@@@@@@@@@@@@@@",
"@@@@@@@@@@@@@@  ++++++++++++++++++++++++++++  @@@@@@@@@@@@@@@@",
"@@@@@@@@@@@@            ++++++++++              @@@@@@@@@@@@@@",
"@@@@@@@@@@@@            ++++++++++              @@@@@@@@@@@@@@",
"@@@@@@@@@@@@  oooooooo  ++++++++  oooooooooooo  @@@@@@@@@@@@@@",
"@@@@@@@@@@@@  oooooooo  ++++++++  oooooooooooo  @@@@@@@@@@@@@@",
"@@@@@@@@@@  oooooooo  ++++++++  oooooooooooooooo  @@@@@@@@@@@@",
"@@@@@@@@@@  oooooooo  ++++++++  oooooooooooooooo  @@@@@@@@@@@@",
"@@@@@@@@@@            ++++++++  oooooooooooooooo  @@@@@@@@@@@@",
"@@@@@@@@@@            ++++++++  oooooooooooooooo  @@@@@@@@@@@@",
"@@@@@@@@  ++++++++++++        ++                        @@@@@@",
"@@@@@@@@  ++++++++++++        ++                        @@@@@@",
"@@@@@@@@  ++++......++        ++++++++++++++++++++      @@@@@@",
"@@@@@@@@  ++++......++        ++++++++++++++++++++      @@@@@@",
"@@@@@@@@  ++....OO....++    ++++    ++++++++    ++++  @@@@@@@@",
"@@@@@@@@  ++....OO....++    ++++    ++++++++    ++++  @@@@@@@@",
"@@@@@@@@  ++..OOOOOO..++++++++  ..++  ++++  ..++  ++  @@@@@@@@",
"@@@@@@@@  ++..OOOOOO..++++++++  ..++  ++++  ..++  ++  @@@@@@@@",
"@@@@@@@@  ++....OO....++++++++  ....  ++++  ....  ++  @@@@@@@@",
"@@@@@@@@  ++....OO....++++++++  ....  ++++  ....  ++  @@@@@@@@",
"@@@@@@@@  ++++......++++++++++++    ++++++++    ++++++  @@@@@@",
"@@@@@@@@  ++++......++++++++++++    ++++++++    ++++++  @@@@@@",
"@@@@@@@@  ++XXXX++++++++++++++++++++++++++++++++++++++  @@@@@@",
"@@@@@@@@  ++XXXX++++++++++++++++++++++++++++++++++++++  @@@@@@",
"@@@@@@@@@@XXXXXXXX++++XXXXXX++++++++++++++++++++++++++  @@@@@@",
"@@@@@@@@@@XXXXXXXX++++XXXXXX++++++++++++++++++++++++++  @@@@@@",
"@@@@@@@@@@XX++XXXX++XXXXXXXXXX++++++++  ++++  ++++++XX@@@@@@@@",
"@@@@@@@@@@XX++XXXX++XXXXXXXXXX++++++++  ++++  ++++++XX@@@@@@@@",
"@@@@@@@@@@XXXXXXXX  XX++XXXXXX++++++++++    ++++++XXXX@@@@@@@@",
"@@@@@@@@@@XXXXXXXX  XX++XXXXXX++++++++++    ++++++XXXX@@@@@@@@",
"@@@@@@@@@@@@XXXX@@@@XXXXXXXXXX            @@    XXXXXX@@@@@@@@",
"@@@@@@@@@@@@XXXX@@@@XXXXXXXXXX            @@    XXXXXX@@@@@@@@",
"@@@@@@@@@@@@@@@@@@@@@@XXXXXX@@@@@@@@@@@@@@@@@@@@XXXX@@@@@@@@@@",
"@@@@@@@@@@@@@@@@@@@@@@XXXXXX@@@@@@@@@@@@@@@@@@@@XXXX@@@@@@@@@@",
"@@@@@@@@@@@@@@@@@@@@@@@@@@@@@@@@@@@@@@@@@@@@@@@@@@@@@@@@@@@@@@",
"@@@@@@@@@@@@@@@@@@@@@@@@@@@@@@@@@@@@@@@@@@@@@@@@@@@@@@@@@@@@@@",
"@@@@@@@@@@@@@@@@@@@@@@@@@@@@@@@@@@@@@@@@@@@@@@@@@@@@@@@@@@@@@@",
"@@@@@@@@@@@@@@@@@@@@@@@@@@@@@@@@@@@@@@@@@@@@@@@@@@@@@@@@@@@@@@",
"@@@@@@@@@@@@@@@@@@@@@@@@@@@@@@@@@@@@@@@@@@@@@@@@@@@@@@@@@@@@@@",
"@@@@@@@@@@@@@@@@@@@@@@@@@@@@@@@@@@@@@@@@@@@@@@@@@@@@@@@@@@@@@@",
"@@@@@@@@@@@@@@@@@@@@@@@@@@@@@@@@@@@@@@@@@@@@@@@@@@@@@@@@@@@@@@",
"@@@@@@@@@@@@@@@@@@@@@@@@@@@@@@@@@@@@@@@@@@@@@@@@@@@@@@@@@@@@@@",
"@@@@@@@@@@@@@@@@@@@@@@@@@@@@@@@@@@@@@@@@@@@@@@@@@@@@@@@@@@@@@@",
"@@@@@@@@@@@@@@@@@@@@@@@@@@@@@@@@@@@@@@@@@@@@@@@@@@@@@@@@@@@@@@"
};
