/* XPM */
static char *result[] = {
/* columns rows colors chars-per-pixel */
"60 60 6 1 ",
"  c black",
". c #46A324",
"X c #F78D02",
"o c #F79707",
"O c #F5941C",
"+ c None",
/* pixels */
"++++++++++++++++++++++++++++++++++++++++++++++++++++++++++++",
"++++++++++++++++++++++++++++++++++++++++++++++++++++++++++++",
"++++++++++++++++++++++++++++++++++++++++++++++++++++++++++++",
"++++++++++++++++++++++++++++++++++++++++++++++++++++++++++++",
"++++++++++++++++++++++++++++++++++++++++++++++++++++++++++++",
"++++++++++++++++++++++++++++++++++++++++++++++++++++++++++++",
"++++++++++++++++++++++++++++++++++++++++++++++++++++++++++++",
"++++++++++++++++++++++++++++++++++++++++++++++++++++++++++++",
"++++++++++++++++++++++++++++++++++++++++++++++++++++++++++++",
"++++++++++++++++++++++++++++++++++++++++++++++++++++++++++++",
"++++++++++++++++++++++++++++++++++++++++++++++++++++++++++++",
"++++++++++++++++++++++++++++++++++++++++++++++++++++++++++++",
"++++++++++++++++++++++++++++++++++++++++++++++++++++++++++++",
"++++++++++++++++++++++++++++++++++++++++++++++++++++++++++++",
"++++++++++++++++++++++++++++++++++++++++++++++++++++++++++++",
"++++++++++++++++++++++++++++++++++++++++++++++++++++++++++++",
"++++++++++++++++++++++++++++++++++++      ++++++++++++++++++",
"++++++++++++++++++++++++++++++++++++      ++++++++++++++++++",
"++++++++++++++++++++++++++++++++++  ....    ++++++++++++++++",
"++++++++++++++++++++++++++++++++++  ....    ++++++++++++++++",
"++++++++++++++++++++++++++++++++++  ..  ..    ++++++++++++++",
"++++++++++++++++++++++++++++++++++  ..  ..    ++++++++++++++",
"++++++++++++++++++++++++++++      ..  ..  ..  ++++++++++++++",
"++++++++++++++++++++++++++++      ..  ..  ..  ++++++++++++++",
"++++++++++++++++++++++++++  OOOOOO  ..  ....  ++++++++++++++",
"++++++++++++++++++++++++++  OOOOOO  ..  ....  ++++++++++++++",
"++++++++++++++++++++++++  OOOOOOOOOO  ..    ++++++++++++++++",
"++++++++++++++++++++++++  OOOOOOOOOO  ..    ++++++++++++++++",
"++++++++++++++++++++++  OOOOOOOOOOOOOO  ++++++++++++++++++++",
"++++++++++++++++++++++  OOOOOOOOOOOOOO  ++++++++++++++++++++",
"++++++++++++++++++++  OOOOOOOOOOOOOOOO  ++++++++++++++++++++",
"++++++++++++++++++++  OOOOOOOOOOOOOOOO  ++++++++++++++++++++",
"++++++++++++++++++  OOOOOOOOOOOOOOooXX  ++++++++++++++++++++",
"++++++++++++++++++  OOOOOOOOOOOOOOooXX  ++++++++++++++++++++",
"++++++++++++++++++  OOOOOOOOOOOOooXX  ++++++++++++++++++++++",
"++++++++++++++++++  OOOOOOOOOOOOooXX  ++++++++++++++++++++++",
"++++++++++++++++  OOOOOOOOOOooXXXX  ++++++++++++++++++++++++",
"++++++++++++++++  OOOOOOOOOOooXXXX  ++++++++++++++++++++++++",
"++++++++++++++++  OOOOOOooooXX    ++++++++++++++++++++++++++",
"++++++++++++++++  OOOOOOooooXX    ++++++++++++++++++++++++++",
"++++++++++++++  OOOOooooXXXX  ++++++++++++++++++++++++++++++",
"++++++++++++++  OOOOooooXXXX  ++++++++++++++++++++++++++++++",
"++++++++++++++  ooXXXXXX    ++++++++++++++++++++++++++++++++",
"++++++++++++++  ooXXXXXX    ++++++++++++++++++++++++++++++++",
"++++++++++++++++        ++++++++++++++++++++++++++++++++++++",
"++++++++++++++++        ++++++++++++++++++++++++++++++++++++",
"++++++++++++++++++++++++++++++++++++++++++++++++++++++++++++",
"++++++++++++++++++++++++++++++++++++++++++++++++++++++++++++",
"++++++++++++++++++++++++++++++++++++++++++++++++++++++++++++",
"++++++++++++++++++++++++++++++++++++++++++++++++++++++++++++",
"++++++++++++++++++++++++++++++++++++++++++++++++++++++++++++",
"++++++++++++++++++++++++++++++++++++++++++++++++++++++++++++",
"++++++++++++++++++++++++++++++++++++++++++++++++++++++++++++",
"++++++++++++++++++++++++++++++++++++++++++++++++++++++++++++",
"++++++++++++++++++++++++++++++++++++++++++++++++++++++++++++",
"++++++++++++++++++++++++++++++++++++++++++++++++++++++++++++",
"++++++++++++++++++++++++++++++++++++++++++++++++++++++++++++",
"++++++++++++++++++++++++++++++++++++++++++++++++++++++++++++",
"++++++++++++++++++++++++++++++++++++++++++++++++++++++++++++",
"++++++++++++++++++++++++++++++++++++++++++++++++++++++++++++"
};
