/* XPM */
static char *result[] = {
/* columns rows colors chars-per-pixel */
"64 64 3 1 ",
"  c #6EB348",
". c #80D154",
"X c #B2F08F",
/* pixels */
"XXXXXXXXXXXXXXXXXXXXXXXXXXXXXXXXXXXXXXXXXXXXXXXXXXXXXXXXXXXXXXXX",
"XXXXXXXXXXXXXXXXXXXXXXXXXXXXXXXXXXXXXXXXXXXXXXXXXXXXXXXXXXXXXXXX",
"XXXXXXXXXXXXXXXXXXXXXXXXXXXXXXXXXXXXXXXXXXXXXXXXXXXXXXXXXXXXXXXX",
"XXXXXXXXXXXXXXXXXXXXXXXXXXXXXXXXXXXXXXXXXXXXXXXXXXXXXXXXXXXXXXXX",
"XXXXXXXXXXXXXXXXXXXXXXXXXXXXXXXXXXXXXXXXXXXXXXXXXXXXXXXXXXXXXXXX",
"XXXXXXXXXXXXXXXXXXXXXXXXXXXXXXXXXXXXXXXXXXXXXXXXXXXXXXXXXXXXXXXX",
"XXXXXXXXXXXXXXXXXXXXXXXXXXXXXXXXXXXXXXXXXXXXXXXXXXXXXXXXXXXXXXXX",
"XXXXXXXXXXXXXXXXXXXXXXXXXXXXXXXXXXXXXXXXXXXXXXXXXXXXXXXXXXXXXXXX",
"XXXXXXXXXXXXXXXXXXXXXXXXXXXXXXXXXX    ..XXXXXXXXXXXXXXXXXXXXXXXX",
"XXXXXXXXXXXXXXXXXXXXXXXXXXXXXXXXXX    ..XXXXXXXXXXXXXXXXXXXXXXXX",
"XXXXXXXXXXXXXXXXXXXXXXXXXXXXXX    ....XXXXXXXXXXXXXXXXXXXXXXXXXX",
"XXXXXXXXXXXXXXXXXXXXXXXXXXXXXX    ....XXXXXXXXXXXXXXXXXXXXXXXXXX",
"XXXXXXXXXXXX  XXXXXXXXXXXXXX  ....XXXXXXXXXXXXXXXX    ..XXXXXXXX",
"XXXXXXXXXXXX  XXXXXXXXXXXXXX  ....XXXXXXXXXXXXXXXX    ..XXXXXXXX",
"XXXXXXXXXXXX  ....XXXXXXXXXXXXXXXXXXXXXXXXXXXXXX  ....XXXXXXXXXX",
"XXXXXXXXXXXX  ....XXXXXXXXXXXXXXXXXXXXXXXXXXXXXX  ....XXXXXXXXXX",
"XXXXXXXXXX  ..XXXXXXXXXXXXXXXXXXXXXXXXXXXXXXXX  ..XXXXXXXXXXXXXX",
"XXXXXXXXXX  ..XXXXXXXXXXXXXXXXXXXXXXXXXXXXXXXX  ..XXXXXXXXXXXXXX",
"XXXXXX    ..XXXXXXXXXXXXXXXXXXXXXXXXXXXXXXXXXXXXXXXXXXXXXXXXXXXX",
"XXXXXX    ..XXXXXXXXXXXXXXXXXXXXXXXXXXXXXXXXXXXXXXXXXXXXXXXXXXXX",
"XXXXXX  ..XXXXXXXXXXXXXXXXXXXXXXXXXXXXXXXXXXXXXXXXXXXXXXXXXXXXXX",
"XXXXXX  ..XXXXXXXXXXXXXXXXXXXXXXXXXXXXXXXXXXXXXXXXXXXXXXXXXXXXXX",
"XXXXXXXXXXXXXXXXXXXXXXXXXXXXXXXXXXXX..XXXXXXXXXXXXXXXXXXXXXXXXXX",
"XXXXXXXXXXXXXXXXXXXXXXXXXXXXXXXXXXXX..XXXXXXXXXXXXXXXXXXXXXXXXXX",
"XXXXXXXXXXXXXXXXXX....XXXXXXXXXXXXXX  ......XXXXXXXXXXXXXXXXXXXX",
"XXXXXXXXXXXXXXXXXX....XXXXXXXXXXXXXX  ......XXXXXXXXXXXXXXXXXXXX",
"XXXXXXXXXXXXXXXXXX    ..XXXXXXXXXXXXXX    ....XXXXXXXXXXXXXXXXXX",
"XXXXXXXXXXXXXXXXXX    ..XXXXXXXXXXXXXX    ....XXXXXXXXXXXXXXXXXX",
"XXXXXXXXXXXXXXXXXXXXXX  ....XXXXXXXXXXXXXX  ......XXXXXXXXXXXXXX",
"XXXXXXXXXXXXXXXXXXXXXX  ....XXXXXXXXXXXXXX  ......XXXXXXXXXXXXXX",
"XXXXXXXXXXXXXXXXXXXXXXXX    ..XXXXXXXXXXXXXX    ..XXXXXXXXXXXXXX",
"XXXXXXXXXXXXXXXXXXXXXXXX    ..XXXXXXXXXXXXXX    ..XXXXXXXXXXXXXX",
"XXXXXXXXXXXXXXXXXXXXXXXXXX  XXXXXXXXXXXXXXXXXXXXXXXXXXXXXXXXXXXX",
"XXXXXXXXXXXXXXXXXXXXXXXXXX  XXXXXXXXXXXXXXXXXXXXXXXXXXXXXXXXXXXX",
"XXXXXXXXXXXXXXXXXXXXXXXXXXXXXXXXXXXXXXXXXXXXXXXXXXXXXXXXXXXXXXXX",
"XXXXXXXXXXXXXXXXXXXXXXXXXXXXXXXXXXXXXXXXXXXXXXXXXXXXXXXXXXXXXXXX",
"XXXXXXXXXXXXXXXXXXXXXXXXXXXXXXXXXXXXXXXXXXXXXXXXXXXXXXXXXXXXXXXX",
"XXXXXXXXXXXXXXXXXXXXXXXXXXXXXXXXXXXXXXXXXXXXXXXXXXXXXXXXXXXXXXXX",
"XXXXXXXXXXXX    XXXXXXXXXXXXXXXXXXXXXXXXXXXXXXXXXXXXXXXXXXXXXXXX",
"XXXXXXXXXXXX    XXXXXXXXXXXXXXXXXXXXXXXXXXXXXXXXXXXXXXXXXXXXXXXX",
"XXXXXXXXXXXX..    XXXXXXXXXXXXXXXXXXXXXXXXXXXXXXXXXXXXXXXXXXXXXX",
"XXXXXXXXXXXX..    XXXXXXXXXXXXXXXXXXXXXXXXXXXXXXXXXXXXXXXXXXXXXX",
"XXXXXXXXXXXXXX..  ..XXXXXXXXXXXXXX  ..XXXXXXXXXXXXXXXXXXXXXXXXXX",
"XXXXXXXXXXXXXX..  ..XXXXXXXXXXXXXX  ..XXXXXXXXXXXXXXXXXXXXXXXXXX",
"XXXXXXXXXXXXXXXX....XXXXXXXXXXXX  ..XXXXXXXXXXXXXXXXXXXXXXXXXXXX",
"XXXXXXXXXXXXXXXX....XXXXXXXXXXXX  ..XXXXXXXXXXXXXXXXXXXXXXXXXXXX",
"XXXXXXXXXXXXXXXXXXXXXXXXXXXX    ..XXXXXXXXXXXXXXXX..  ..XXXXXXXX",
"XXXXXXXXXXXXXXXXXXXXXXXXXXXX    ..XXXXXXXXXXXXXXXX..  ..XXXXXXXX",
"XXXXXXXX  XXXXXXXXXXXXXXXXXX  ..XXXXXXXXXXXXXXXX..  ..XXXXXXXXXX",
"XXXXXXXX  XXXXXXXXXXXXXXXXXX  ..XXXXXXXXXXXXXXXX..  ..XXXXXXXXXX",
"XXXXXXXX..  XXXXXXXXXXXXXX....XXXXXXXXXXXXXXXX..  ..XXXXXXXXXXXX",
"XXXXXXXX..  XXXXXXXXXXXXXX....XXXXXXXXXXXXXXXX..  ..XXXXXXXXXXXX",
"XXXXXXXX..  XXXXXXXXXXXXXXXXXXXXXXXXXXXXXXXX    ..XXXXXXXXXXXXXX",
"XXXXXXXX..  XXXXXXXXXXXXXXXXXXXXXXXXXXXXXXXX    ..XXXXXXXXXXXXXX",
"XXXXXXXXXX..  XXXXXXXXXXXXXXXXXXXXXXXXXXXXXXXXXXXXXXXXXXXXXXXXXX",
"XXXXXXXXXX..  XXXXXXXXXXXXXXXXXXXXXXXXXXXXXXXXXXXXXXXXXXXXXXXXXX",
"XXXXXXXXXXXX..  XXXXXXXXXXXXXXXXXXXXXXXXXXXXXXXXXXXXXXXXXXXXXXXX",
"XXXXXXXXXXXX..  XXXXXXXXXXXXXXXXXXXXXXXXXXXXXXXXXXXXXXXXXXXXXXXX",
"XXXXXXXXXXXXXX....XXXXXXXXXXXXXXXXXXXXXXXXXXXXXXXXXXXXXXXXXXXXXX",
"XXXXXXXXXXXXXX....XXXXXXXXXXXXXXXXXXXXXXXXXXXXXXXXXXXXXXXXXXXXXX",
"XXXXXXXXXXXXXXXXXXXXXXXXXXXXXXXXXXXXXXXXXXXXXXXXXXXXXXXXXXXXXXXX",
"XXXXXXXXXXXXXXXXXXXXXXXXXXXXXXXXXXXXXXXXXXXXXXXXXXXXXXXXXXXXXXXX",
"XXXXXXXXXXXXXXXXXXXXXXXXXXXXXXXXXXXXXXXXXXXXXXXXXXXXXXXXXXXXXXXX",
"XXXXXXXXXXXXXXXXXXXXXXXXXXXXXXXXXXXXXXXXXXXXXXXXXXXXXXXXXXXXXXXX"
};
