/* XPM */
static char *result[] = {
/* columns rows colors chars-per-pixel */
"64 64 9 1 ",
"  c black",
". c #3BB377",
"X c gray72",
"o c #FA9AAA",
"O c #89E0B1",
"+ c gray93",
"@ c #FAE6E9",
"# c white",
"$ c None",
/* pixels */
"$$$$$$$$$$$$$$$$$$$$$$$$$$$$$$$$$$$$$$$$$$$$$$$$$$$$$$$$$$$$$$$$",
"$$$$$$$$$$$$$$$$$$$$$$$$$$$$$$$$$$$$$$$$$$$$$$$$$$$$$$$$$$$$$$$$",
"$$$$$$$$$$$$$$$$$$$$$$$$$$$$$$$$$$$$$$$$$$$$$$$$$$$$$$$$$$$$$$$$",
"$$$$$$$$$$$$$$$$$$$$$$$$$$$$$$$$$$$$$$$$$$$$$$$$$$$$$$$$$$$$$$$$",
"$$$$$$$$$$$$$$$$$$$$$$$$$$$$$$$$$$$$$$$$$$$$$$$$$$$$$$$$$$$$$$$$",
"$$$$$$$$$$$$$$$$$$$$$$$$$$$$$$$$$$$$$$$$$$$$$$$$$$$$$$$$$$$$$$$$",
"$$$$$$$$$$$$$$$$$$$$$$$$$$$$$$$$$$$$$$$$$$$$$$$$$$$$$$$$$$$$$$$$",
"$$$$$$$$$$$$$$$$$$$$$$$$$$$$$$$$$$$$$$$$$$$$$$$$$$$$$$$$$$$$$$$$",
"$$$$$$$$$$$$$$$$$$$$$$$$$$$$$$$$$$$$$$$$$$$$$$$$$$$$$$$$$$$$$$$$",
"$$$$$$$$$$$$$$$$$$$$$$$$$$$$$$$$$$$$$$$$$$$$$$$$$$$$$$$$$$$$$$$$",
"$$$$$$$$$$$$$$$$$$$$$$$$$$$$$$$$$$$$$$$$$$$$$$$$$$$$$$$$$$$$$$$$",
"$$$$$$$$$$$$$$$$$$$$$$$$$$$$$$$$$$$$$$$$$$$$$$$$$$$$$$$$$$$$$$$$",
"$$$$$$$$$$$$$$$$$$$$$$$$$$$$$$$$$$$$$$$$$$$$$$$$$$$$$$$$$$$$$$$$",
"$$$$$$$$$$$$$$$$$$$$$$$$$$$$$$$$$$$$$$$$$$$$$$$$$$$$$$$$$$$$$$$$",
"$$$$$$$$$$$$$$$$$$$$$$$$$$$$$$$$$$$$$$$$$$$$$$$$$$$$$$$$$$$$$$$$",
"$$$$$$$$$$$$$$$$$$$$$$$$$$$$$$$$$$$$$$$$$$$$$$$$$$$$$$$$$$$$$$$$",
"$$$$$$$$$$$$$$$$$$$$                    $$$$$$$$$$$$$$$$$$$$$$$$",
"$$$$$$$$$$$$$$$$$$$$                    $$$$$$$$$$$$$$$$$$$$$$$$",
"$$$$$$$$$$$$$$$$    oooooooooooooooooooo    $$$$$$$$$$$$$$$$$$$$",
"$$$$$$$$$$$$$$$$    oooooooooooooooooooo    $$$$$$$$$$$$$$$$$$$$",
"$$$$$$$$$$$$$$  oooooooooooooooooooooooooooo  $$$$$$$$$$$$$$$$$$",
"$$$$$$$$$$$$$$  oooooooooooooooooooooooooooo  $$$$$$$$$$$$$$$$$$",
"$$$$$$$$$$$$            oooooooooo              $$$$$$$$$$$$$$$$",
"$$$$$$$$$$$$            oooooooooo              $$$$$$$$$$$$$$$$",
"$$$$$$$$$$$$  @@@@@@@@  oooooooo  @@@@@@@@@@@@  $$$$$$$$$$$$$$$$",
"$$$$$$$$$$$$  @@@@@@@@  oooooooo  @@@@@@@@@@@@  $$$$$$$$$$$$$$$$",
"$$$$$$$$$$  @@@@@@@@  oooooooo  @@@@@@@@@@@@@@@@  $$$$$$$$$$$$$$",
"$$$$$$$$$$  @@@@@@@@  oooooooo  @@@@@@@@@@@@@@@@  $$$$$$$$$$$$$$",
"$$$$$$$$$$            oooooooo  @@@@@@@@@@@@@@@@  $$$$$$$$$$$$$$",
"$$$$$$$$$$            oooooooo  @@@@@@@@@@@@@@@@  $$$$$$$$$$$$$$",
"$$$$$$$$  oooooooooooo        oo                        $$$$$$$$",
"$$$$$$$$  oooooooooooo        oo                        $$$$$$$$",
"$$$$$$$$  oooooooooooo        oooooooooooooooooooo      $$$$$$$$",
"$$$$$$$$  oooooooooooo        oooooooooooooooooooo      $$$$$$$$",
"$$$$$$$$  ooooooOOoooooo    OOOO    OOOOoooo    OOoo  $$$$$$$$$$",
"$$$$$$$$  ooooooOOoooooo    OOOO    OOOOoooo    OOoo  $$$$$$$$$$",
"$$$$$$$$  ooooOOOOooooooOOOOOO  ++++  OOOO  ++++  OO  $$$$$$$$$$",
"$$$$$$$$  ooooOOOOooooooOOOOOO  ++++  OOOO  ++++  OO  $$$$$$$$$$",
"$$$$$$$$  OOOOOOOOooooOOOOOOOO  XX++  OOOO  XX++  OO  $$$$$$$$$$",
"$$$$$$$$  OOOOOOOOooooOOOOOOOO  XX++  OOOO  XX++  OO  $$$$$$$$$$",
"$$$$$$$$  ..OOOOooOOooOOOO....OO    OOOOOOOO    OOOOoo  $$$$$$$$",
"$$$$$$$$  ..OOOOooOOooOOOO....OO    OOOOOOOO    OOOOoo  $$$$$$$$",
"$$$$$$$$  OO    OOOOOOOOOO....OOOOOOOOOOOOOOOOOOOOOOOO  $$$$$$$$",
"$$$$$$$$  OO    OOOOOOOOOO....OOOOOOOOOOOOOOOOOOOOOOOO  $$$$$$$$",
"$$$$$$$$$$        OOOO      OO..OOOOOOOOOOOOOOOOOOOOOO  $$$$$$$$",
"$$$$$$$$$$        OOOO      OO..OOOOOOOOOOOOOOOOOOOOOO  $$$$$$$$",
"$$$$$$$$$$  ##    OO          OOOOOOOO  OOOO  OOOOOO  $$$$$$$$$$",
"$$$$$$$$$$  ##    OO          OOOOOOOO  OOOO  OOOOOO  $$$$$$$$$$",
"$$$$$$$$$$            ##      OOOOOOOOOO    OOOOOO    $$$$$$$$$$",
"$$$$$$$$$$            ##      OOOOOOOOOO    OOOOOO    $$$$$$$$$$",
"$$$$$$$$$$$$    $$$$                      $$          $$$$$$$$$$",
"$$$$$$$$$$$$    $$$$                      $$          $$$$$$$$$$",
"$$$$$$$$$$$$$$$$$$$$$$      $$$$$$$$$$$$$$$$$$$$    $$$$$$$$$$$$",
"$$$$$$$$$$$$$$$$$$$$$$      $$$$$$$$$$$$$$$$$$$$    $$$$$$$$$$$$",
"$$$$$$$$$$$$$$$$$$$$$$$$$$$$$$$$$$$$$$$$$$$$$$$$$$$$$$$$$$$$$$$$",
"$$$$$$$$$$$$$$$$$$$$$$$$$$$$$$$$$$$$$$$$$$$$$$$$$$$$$$$$$$$$$$$$",
"$$$$$$$$$$$$$$$$$$$$$$$$$$$$$$$$$$$$$$$$$$$$$$$$$$$$$$$$$$$$$$$$",
"$$$$$$$$$$$$$$$$$$$$$$$$$$$$$$$$$$$$$$$$$$$$$$$$$$$$$$$$$$$$$$$$",
"$$$$$$$$$$$$$$$$$$$$$$$$$$$$$$$$$$$$$$$$$$$$$$$$$$$$$$$$$$$$$$$$",
"$$$$$$$$$$$$$$$$$$$$$$$$$$$$$$$$$$$$$$$$$$$$$$$$$$$$$$$$$$$$$$$$",
"$$$$$$$$$$$$$$$$$$$$$$$$$$$$$$$$$$$$$$$$$$$$$$$$$$$$$$$$$$$$$$$$",
"$$$$$$$$$$$$$$$$$$$$$$$$$$$$$$$$$$$$$$$$$$$$$$$$$$$$$$$$$$$$$$$$",
"$$$$$$$$$$$$$$$$$$$$$$$$$$$$$$$$$$$$$$$$$$$$$$$$$$$$$$$$$$$$$$$$",
"$$$$$$$$$$$$$$$$$$$$$$$$$$$$$$$$$$$$$$$$$$$$$$$$$$$$$$$$$$$$$$$$"
};
